<svg xmlns="http://www.w3.org/2000/svg" xmlns:xlink="http://www.w3.org/1999/xlink" preserveAspectRatio="xMidYMid" width="21" height="16" viewBox="0 0 21 16">
  <defs>
    <style>
      .cls-1 {
        fill: #6c6c6c;
        fill-rule: evenodd;
      }
    </style>
  </defs>
  <path d="M21.008,1.895 C20.235,2.217 19.404,2.432 18.533,2.531 C19.423,2.030 20.106,1.238 20.428,0.297 C19.594,0.759 18.672,1.095 17.690,1.276 C16.905,0.491 15.784,0.001 14.545,0.001 C12.165,0.001 10.234,1.809 10.234,4.040 C10.234,4.356 10.272,4.666 10.346,4.960 C6.764,4.792 3.588,3.184 1.462,0.740 C1.091,1.337 0.879,2.030 0.879,2.771 C0.879,4.172 1.640,5.409 2.796,6.133 C2.090,6.111 1.425,5.930 0.844,5.628 C0.844,5.646 0.844,5.661 0.844,5.679 C0.844,7.636 2.329,9.268 4.301,9.639 C3.940,9.732 3.558,9.779 3.166,9.779 C2.888,9.779 2.618,9.756 2.355,9.709 C2.903,11.312 4.495,12.481 6.381,12.514 C4.906,13.597 3.048,14.242 1.028,14.242 C0.680,14.242 0.337,14.224 0.000,14.187 C1.907,15.331 4.173,16.001 6.607,16.001 C14.535,16.001 18.870,9.845 18.870,4.508 C18.870,4.333 18.865,4.159 18.857,3.985 C19.699,3.415 20.430,2.704 21.008,1.895 Z" class="cls-1"/>
</svg>
