<svg xmlns="http://www.w3.org/2000/svg" xmlns:xlink="http://www.w3.org/1999/xlink" preserveAspectRatio="xMidYMid" width="31.16" height="17.75" viewBox="0 0 31.16 17.75">
  <defs>
    <style>
      .cls-1 {
        fill: #6c6c6c;
        fill-rule: evenodd;
      }
    </style>
  </defs>
  <path d="M15.245,17.723 L17.106,17.723 C17.106,17.723 17.668,17.661 17.956,17.352 C18.220,17.068 18.211,16.534 18.211,16.534 C18.211,16.534 18.175,14.009 19.334,13.642 C20.477,13.279 21.944,16.055 23.499,17.123 C24.675,17.930 25.569,17.723 25.569,17.723 L29.728,17.726 C29.728,17.726 31.903,17.561 30.871,15.851 C30.787,15.711 30.271,14.586 27.779,12.273 C25.171,9.853 25.521,10.245 28.662,6.058 C30.575,3.508 31.340,1.952 31.101,1.285 C30.873,0.651 29.476,0.760 29.476,0.760 L24.784,0.758 C24.784,0.758 24.436,0.725 24.179,0.878 C23.927,1.029 23.766,1.420 23.766,1.420 C23.766,1.420 23.025,3.429 22.036,5.107 C19.952,8.647 19.118,8.835 18.777,8.614 C17.984,8.102 18.182,6.556 18.182,5.458 C18.182,2.027 18.703,0.596 17.169,0.226 C16.660,0.103 16.285,0.022 14.983,0.009 C13.313,-0.008 11.899,0.014 11.098,0.406 C10.565,0.667 10.154,1.248 10.405,1.282 C10.715,1.323 11.415,1.471 11.787,1.976 C12.267,2.629 12.250,4.095 12.250,4.095 C12.250,4.095 12.526,8.134 11.606,8.636 C10.975,8.980 10.109,8.277 8.250,5.065 C7.298,3.420 6.579,1.567 6.579,1.567 C6.579,1.567 6.440,1.227 6.193,1.045 C5.893,0.825 5.474,0.755 5.474,0.755 L1.024,0.757 C1.024,0.757 0.356,0.775 0.111,1.066 C-0.107,1.324 0.093,1.859 0.093,1.859 C0.093,1.859 3.577,10.070 7.521,14.177 C11.138,17.943 15.245,17.723 15.245,17.723 Z" class="cls-1"/>
</svg>
